# xmcd CD database file
#
# Track frame offsets:
#	150
#	23543
#	40247
#	52597
#	68507
#	82685
#	94386
#	108637
#	132940
#	147784
#	163312
#	184199
#	209567
#	236232
#
# Disc length: 3388 seconds
#
# Revision: 0
# Processed by: cddbd v1.5.2PL0 Copyright (c) Steve Scherf et al.
# Submitted via: CDex 1.51
#
DISCID=bb0d3a0e
DTITLE=Dixieland Bull's Band - Just a mood
DYEAR=2002
DGENRE=Jazz
TTITLE0=Promenade aux Champs Elysées
TTITLE1=Riverboat shuffle
TTITLE2=Sensation rag
TTITLE3=Just a mood
TTITLE4=Susie
TTITLE5=Stevedore Stomp
TTITLE6=Unnamed track
TTITLE7=At sundown
TTITLE8=All of me
TTITLE9=Swingin' the blues
TTITLE10=Saturday night function
TTITLE11=Wooster shire
TTITLE12=Kansas City
TTITLE13=Just a mood (remix)
EXTD=YEAR: 2002
EXTT0=
EXTT1=
EXTT2=
EXTT3=
EXTT4=
EXTT5=
EXTT6=
EXTT7=
EXTT8=
EXTT9=
EXTT10=
EXTT11=
EXTT12=
EXTT13=
PLAYORDER=
